<svg width="577" height="758" viewBox="0 0 577 758" fill="none" xmlns="http://www.w3.org/2000/svg">
<path d="M0.361572 0.86643L576.026 0.866413" stroke="white" stroke-opacity="0.2"/>
<path d="M1.36011 0.866425L1.36011 756.945" stroke="white" stroke-opacity="0.2"/>
<path d="M115.694 0.866425L115.694 756.945" stroke="white" stroke-opacity="0.2"/>
<path d="M230.528 0.866425L230.528 756.945" stroke="white" stroke-opacity="0.2"/>
<path d="M347.358 0.866425L347.358 757.5" stroke="white" stroke-opacity="0.2"/>
<path d="M462.191 0.866425L462.191 757.5" stroke="white" stroke-opacity="0.2"/>
<path d="M575.527 0.31131V757.5" stroke="white" stroke-opacity="0.2"/>
<path d="M0.86084 698.102H576.026" stroke="white" stroke-opacity="0.2"/>
<path d="M1.85941 172.955H576.026" stroke="white" stroke-opacity="0.2"/>
<path d="M0.86084 231.798H576.026" stroke="white" stroke-opacity="0.2"/>
<path d="M0.86084 290.641H576.026" stroke="white" stroke-opacity="0.2"/>
<path d="M0.86084 348.374H576.026" stroke="white" stroke-opacity="0.2"/>
<path d="M0.86084 407.217H576.026" stroke="white" stroke-opacity="0.2"/>
<path d="M0.86084 464.95H576.026" stroke="white" stroke-opacity="0.2"/>
<path d="M0.86084 523.793H576.026" stroke="white" stroke-opacity="0.2"/>
<path d="M0.86084 581.526H576.026" stroke="white" stroke-opacity="0.2"/>
<path d="M0.86084 639.259H576.026" stroke="white" stroke-opacity="0.2"/>
<path d="M0.86084 756.39H576.026" stroke="white" stroke-opacity="0.2"/>
<path d="M0.86084 115.222L576.026 115.222" stroke="white" stroke-opacity="0.2"/>
<path d="M0.86084 58.5993L576.026 58.5993" stroke="white" stroke-opacity="0.2"/>
<path d="M0.86084 29.7328L576.026 29.7328" stroke="white" stroke-opacity="0.1"/>
<path d="M0.86084 87.4657L576.026 87.4657" stroke="white" stroke-opacity="0.1"/>
<path d="M0.86084 146.309L576.026 146.309" stroke="white" stroke-opacity="0.1"/>
<path d="M0.86084 202.931L576.026 202.931" stroke="white" stroke-opacity="0.1"/>
<path d="M0.86084 262.885L576.026 262.885" stroke="white" stroke-opacity="0.1"/>
<path d="M0.86084 318.397L576.026 318.397" stroke="white" stroke-opacity="0.1"/>
<path d="M0.86084 378.351L576.026 378.351" stroke="white" stroke-opacity="0.1"/>
<path d="M0.86084 436.083L576.026 436.083" stroke="white" stroke-opacity="0.1"/>
<path d="M0.86084 493.816L576.026 493.816" stroke="white" stroke-opacity="0.1"/>
<path d="M0.86084 552.659L576.026 552.659" stroke="white" stroke-opacity="0.1"/>
<path d="M0.86084 669.235L576.026 669.235" stroke="white" stroke-opacity="0.1"/>
<path d="M0.86084 728.078L576.026 728.078" stroke="white" stroke-opacity="0.1"/>
<path d="M0.86084 610.392L576.026 610.392" stroke="white" stroke-opacity="0.1"/>
</svg>
